PathFileType	4	(X/Y/Z)	s09c0401.trc
DataRate	CameraRate	NumFrames	NumMarkers	Units	OrigDataRate	OrigDataStartFrame	OrigNumFrames
200	200	4	50	mm	200	1500	2000
Frame#	Time	racr			lacr			c7			jug			rlel			rdr			llel			ldr			s2			lic			ric			lasi			rasi			rpsi			lpsi			rgt			lgt			rth1			rth2			rth3			rth4			rlfc			rmfc			rsh1			rsh2			rsh3			rsh4			rlmal			rmmal			rcal			rtoe			rmt5			lth1			lth2			lth4			lth3			llfc			lmfc			llmal			lmmal			lcal			lmt5			lsh1			lsh2			lsh3			lsh4			ltoe			SBIKE			LBIKE			RBIKE			
		X1	Y1	Z1	X2	Y2	Z2	X3	Y3	Z3	X4	Y4	Z4	X5	Y5	Z5	X6	Y6	Z6	X7	Y7	Z7	X8	Y8	Z8	X9	Y9	Z9	X10	Y10	Z10	X11	Y11	Z11	X12	Y12	Z12	X13	Y13	Z13	X14	Y14	Z14	X15	Y15	Z15	X16	Y16	Z16	X17	Y17	Z17	X18	Y18	Z18	X19	Y19	Z19	X20	Y20	Z20	X21	Y21	Z21	X22	Y22	Z22	X23	Y23	Z23	X24	Y24	Z24	X25	Y25	Z25	X26	Y26	Z26	X27	Y27	Z27	X28	Y28	Z28	X29	Y29	Z29	X30	Y30	Z30	X31	Y31	Z31	X32	Y32	Z32	X33	Y33	Z33	X34	Y34	Z34	X35	Y35	Z35	X36	Y36	Z36	X37	Y37	Z37	X38	Y38	Z38	X39	Y39	Z39	X40	Y40	Z40	X41	Y41	Z41	X42	Y42	Z42	X43	Y43	Z43	X44	Y44	Z44	X45	Y45	Z45	X46	Y46	Z46	X47	Y47	Z47	X48	Y48	Z48	X49	Y49	Z49	X50	Y50	Z50	
1500	7.5000	741.598990	1236.476877	-46.276867	756.429028	1194.234016	-413.319019	759.449362	1301.987675	-229.816479	741.888307	1162.233368	-226.067094	613.538465	1053.551312	82.713063	652.812428	861.010001	-52.425338	580.818902	1057.263376	-577.432065	623.610935	861.076620	-442.249763	263.627546	1177.295970	-257.647311	399.907891	1124.629043	-395.646313	393.186089	1158.185630	-101.094352	422.045815	1061.671994	-361.943257	417.623671	1092.731911	-116.480361	296.457200	1210.384334	-198.544062	304.375334	1198.862397	-307.978120	347.685301	1034.198245	-49.430660	321.685520	996.431086	-418.554504	445.197419	932.203481	-56.648223	512.980598	880.088721	-76.629657	545.572588	798.635309	-84.155378	531.735087	897.536070	-102.471128	568.409823	701.184911	-119.015178	539.020392	693.139739	-214.245445	468.981256	678.114912	-84.810670	396.341754	625.941328	-94.684358	309.526608	616.999534	-89.044693	407.147895	602.079708	-124.817337	214.556641	578.559798	-84.745407	222.688893	584.211839	-161.848329	134.546004	616.900818	-122.736294	298.330831	408.639594	-128.644288	233.791891	461.206668	-63.250489	363.907320	863.031202	-415.167115	412.024584	793.752148	-405.294222	446.922047	805.241316	-394.526524	418.577505	703.587896	-396.301224	434.653299	611.657283	-379.807078	434.041733	594.053281	-284.936101	294.459054	272.330086	-405.328662	313.492339	274.701098	-333.448069	222.316466	248.064719	-370.869455	377.737535	170.456391	-432.630654	389.285199	521.822325	-408.094292	381.764473	435.621484	-403.549864	331.269277	362.736697	-406.062372	406.109073	427.684297	-372.317696	471.149545	169.511069	-363.375204	-64.729158	853.181868	-240.967508	21.120511	83.915303	-442.047319	21.145670	83.985390	-43.988016	
1501	7.5050	741.215669	1236.416240	-44.311101	756.963697	1195.133428	-410.786758	758.917703	1302.053155	-227.451141	741.678089	1162.482493	-223.739421	613.404201	1052.650013	83.594066	652.717032	861.148722	-52.204103	581.694406	1058.152736	-575.961704	624.273847	861.150765	-441.964265	263.910256	1176.416267	-260.474747	401.579853	1123.568343	-396.312600	391.864940	1159.056238	-102.197230	423.152093	1060.419236	-362.111721	417.036688	1093.647456	-116.470820	295.912650	1210.153396	-201.197231	305.424530	1197.230291	-310.590136	347.125168	1036.013781	-50.348789	322.358586	994.277447	-418.626566	447.237940	936.010399	-57.247531	516.193756	885.339139	-77.122003	550.731502	804.762787	-84.298231	534.480435	903.111532	-103.141035	575.542303	706.991546	-118.855756	546.408843	698.655110	-214.445672	476.355099	683.601949	-84.985770	403.669629	631.560802	-94.961781	316.830102	622.622265	-89.212713	414.369052	608.311298	-124.837765	221.784929	583.897040	-84.992985	229.659191	589.705756	-162.064941	140.938624	621.098583	-122.470855	308.366806	415.998730	-128.706669	242.925761	467.165643	-63.320494	361.706614	860.829676	-415.355514	408.084780	790.194270	-405.075427	442.933108	801.000886	-393.818754	412.324529	700.007791	-396.152670	426.493919	608.135479	-379.652565	424.803204	590.500124	-284.349183	287.060980	268.483382	-404.708192	306.485644	270.284618	-333.338416	215.297024	245.926028	-370.757959	369.057639	165.090428	-432.425951	381.005025	518.347789	-408.120173	373.987451	432.117796	-403.661459	323.746750	358.956545	-406.111046	398.364432	424.412580	-372.506240	462.353089	162.137266	-363.111586	-64.760675	853.171587	-240.949586	21.112060	83.920049	-442.043429	21.131234	83.967266	-43.969965	
1502	7.5100	740.721965	1236.691401	-42.159789	757.409765	1196.048312	-408.205862	758.261217	1302.268915	-224.625220	741.469638	1162.554747	-221.407462	613.324342	1051.954024	85.117720	653.073866	861.372717	-52.530935	582.495782	1059.051095	-574.379420	624.858600	861.111246	-441.785275	264.133487	1175.532208	-263.151711	403.246179	1122.604997	-396.879465	390.537744	1159.990334	-103.294129	424.278590	1059.248769	-362.336902	416.463690	1094.798979	-116.323146	295.106365	1210.048888	-203.868645	305.797052	1196.312300	-312.745154	346.595044	1037.908583	-51.243819	323.113237	992.288477	-418.863178	449.277823	940.008860	-58.001295	519.145186	890.654706	-77.601250	555.550364	810.740700	-84.261317	537.105588	908.638162	-103.715772	582.526428	713.016435	-118.797795	553.564135	704.490913	-214.939448	483.537930	689.027232	-85.120994	410.914501	636.940152	-95.244855	324.089631	627.750099	-89.393442	421.560989	613.913362	-125.285379	229.047158	588.642116	-85.210102	236.694300	594.557932	-162.290166	147.338971	624.981003	-122.809500	318.745157	422.885050	-128.804731	252.200648	472.778573	-63.458890	359.714310	858.939344	-415.654038	404.297193	787.106805	-405.076295	438.851334	796.949299	-392.850976	406.211009	696.898189	-396.403722	418.446733	604.959293	-379.737714	415.990722	587.432113	-284.163769	279.754955	265.492388	-404.771446	299.567255	267.095680	-333.924877	208.138980	244.461380	-370.637742	360.052427	160.274922	-432.222853	372.819172	515.303403	-408.322139	366.114641	429.078083	-403.893726	316.232762	355.688046	-406.227537	390.630038	421.395475	-372.725375	453.209080	155.210786	-362.826113	-64.781246	853.180678	-240.918827	21.117761	83.924165	-442.045294	21.130822	83.983417	-43.974501	
1503	7.5150	740.254821	1236.787832	-40.018731	757.872561	1196.975775	-405.557074	757.665291	1302.544439	-221.891127	741.281459	1162.458648	-219.084509	613.001432	1051.356097	86.727110	653.094714	861.426324	-52.424108	583.292467	1060.112886	-572.807823	625.386378	861.100600	-441.571413	264.324994	1174.611841	-265.921834	404.900220	1121.739974	-397.351982	389.192369	1160.945247	-104.291159	425.490570	1058.058398	-362.305536	415.810928	1096.148811	-116.074515	294.621081	1209.034844	-207.379411	306.711561	1194.995011	-315.228691	346.074208	1039.734518	-52.149461	324.112911	990.375856	-419.395205	451.036474	943.978355	-58.514312	521.981089	895.917002	-78.170817	559.084707	817.293100	-82.912848	539.654872	914.191408	-104.287996	589.286025	719.139461	-118.614172	560.544025	710.389901	-215.523314	490.371326	694.527061	-85.244276	418.018589	642.046214	-95.481617	331.242696	632.394622	-89.625375	428.802474	619.315826	-125.643549	236.350546	592.709272	-85.525299	243.703240	598.773429	-162.495006	153.783981	627.801167	-122.791185	329.341270	429.682349	-128.628185	262.319343	477.754537	-63.127750	357.802025	857.245533	-415.992172	400.670071	784.433480	-405.231222	435.191692	793.415411	-392.533334	400.421303	694.121251	-396.869886	410.623992	602.144624	-380.144985	407.558852	584.738363	-284.274005	272.325015	262.870458	-404.631759	292.645127	264.225263	-334.344124	200.875969	243.704393	-370.498860	350.784795	156.025379	-432.020332	364.784115	512.671616	-408.685921	358.383634	426.473021	-404.261826	308.614566	352.952326	-406.504937	383.026981	418.833482	-373.267493	443.811117	148.864811	-362.743081	-64.789451	853.180635	-240.876872	21.112844	83.942513	-442.045424	21.109395	83.983182	-43.977490	
